<svg width="670" height="576" fill="none" xmlns="http://www.w3.org/2000/svg"><path opacity=".4" d="M669.121 300.622c-2.09 49.014-67.596 71.987-85.954 117.481-19.225 47.643 23.412 127.359-22.303 150.803-53.608 27.491-111.146-46.277-171.157-51.592-33.6-2.976-62.41 29.227-96.117 27.92-34.171-1.325-63.422-22.496-95.118-35.333-35.62-14.427-74.249-21.893-104.547-45.535-33.828-26.399-64.573-58.859-80.362-98.758C-2.904 323.995-1.263 277.876 2.481 233.28c4.014-47.808 8.64-97.435 33.8-138.284C61.88 53.43 97.4 5.55 145.942.356c54.694-5.852 94.039 62.218 148.839 66.982 41.236 3.586 74.462-54.034 114.637-44.073 39.174 9.713 46.282 65.582 77.12 91.62 32.032 27.046 77.454 33.811 106.844 63.707 33.932 34.519 77.802 73.67 75.739 122.03z" fill="#D73B3B"/><circle cx="335.5" cy="252.5" r="55.5" fill="url(#paint0_radial_0_1)"/><circle cx="336" cy="252" r="36.5" fill="#F2F2F2" stroke="#EBEBEB"/><path d="M339.56 257.007c1.633.119 2.171 2.021 3.155 3.26.923 1.162 2.521 2.121 2.256 3.553-.273 1.465-2.034 2.043-3.424 2.738-1.496.747-3.047 1.855-4.628 1.284-1.675-.605-2.638-2.315-2.885-3.997-.225-1.526.707-2.864 1.696-4.087 1.024-1.268 2.149-2.874 3.83-2.751zM348.477 241.004c.688.072 1.062 1.228 1.502 2.113.456.918 1.1 1.768 1.013 2.952-.094 1.276-.715 2.319-1.436 2.777-.66.419-1.345-.096-1.983-.606-.638-.511-1.35-1.06-1.528-2.203-.183-1.17.22-2.318.676-3.26.451-.935 1.038-1.848 1.756-1.773zM328.854 241.003c1.514-.055 3.029.709 3.806 1.948.693 1.103.188 2.453-.289 3.656-.379.956-1.04 1.784-2.027 2.183-.932.376-1.962.208-2.879-.201-.932-.415-1.697-1.078-2.052-1.998-.429-1.113-.651-2.357-.022-3.379.74-1.201 2.002-2.157 3.463-2.209z" fill="#C2B790"/><path d="M260 285.02v1.48h-8.942l-2.236 18.5h-14.718l2.049-18.5H192l66.696-92.5 1.304.74c-18.382 25.407-40.055 55.5-65.019 90.28h41.359l6.148-51.06h14.904l-6.148 51.06H260zM479 285.02v1.48h-8.942l-2.236 18.5h-14.718l2.049-18.5H411l66.696-92.5 1.304.74c-18.382 25.407-40.055 55.5-65.019 90.28h41.359l6.148-51.06h14.904l-6.148 51.06H479z" fill="#242536"/><path d="M90.872 375h-.312v-16.8h.816l9.984 15.528V358.2h.312V375H99.92l-9.048-13.92V375zm23.227 0c-1.088 0-1.832-.208-2.232-.624-.368-.352-.552-.656-.552-.912v-.504c-.784 1.424-2.04 2.136-3.768 2.136-2.016 0-3.16-.912-3.432-2.736a3.498 3.498 0 01-.048-.576c0-.208.032-.432.096-.672.064-.24.248-.504.552-.792.608-.576 1.944-.928 4.008-1.056.512-.048.984-.072 1.416-.072.432 0 .824.016 1.176.048v-3.984c-.032-.016-.032-.088 0-.216.032-.144 0-.32-.096-.528a2.779 2.779 0 00-.336-.648c-.144-.208-.4-.384-.768-.528-.368-.16-.848-.24-1.44-.24s-1.288.112-2.088.336c-.784.208-1.36.416-1.728.624l-.096-.168c1.424-.656 2.872-.984 4.344-.984 1.648 0 2.736.296 3.264.888.416.464.624.952.624 1.464v8.04c0 .464.088.824.264 1.08.192.24.384.368.576.384l.264.048h.744V375h-.744zm-6.168-.096c.848 0 1.608-.288 2.28-.864.688-.592 1.056-1.16 1.104-1.704v-2.904a17.866 17.866 0 00-1.32-.048c-.432 0-.864.024-1.296.072-1.216.144-2.008.416-2.376.816-.368.4-.552.952-.552 1.656 0 .128.008.272.024.432.144 1.696.856 2.544 2.136 2.544zm-2.976-13.872l-.192-.072c.08-.48.288-.912.624-1.296.112-.128.296-.216.552-.264l.576-.096c.272-.064.768-.008 1.488.168l1.944.432a7.637 7.637 0 001.704.216c.512 0 .848-.064 1.008-.192.16-.144.288-.4.384-.768l.216.048c-.176.864-.504 1.424-.984 1.68-.192.112-.368.168-.528.168-.16 0-.32-.008-.48-.024-.368 0-.8-.08-1.296-.24-1.392-.4-2.544-.6-3.456-.6-.896 0-1.416.28-1.56.84zm17.224 14.064c-1.68 0-3.048-.48-4.104-1.44s-1.584-2.44-1.584-4.44c0-2 .544-3.552 1.632-4.656 1.104-1.104 2.496-1.656 4.176-1.656 1.696 0 3.072.48 4.128 1.44s1.584 2.44 1.584 4.44c0 2-.552 3.552-1.656 4.656-1.088 1.104-2.48 1.656-4.176 1.656zm.168-12c-1.216 0-2.224.544-3.024 1.632-.8 1.072-1.2 2.576-1.2 4.512 0 1.92.368 3.344 1.104 4.272.736.928 1.712 1.392 2.928 1.392s2.224-.536 3.024-1.608c.8-1.088 1.2-2.592 1.2-4.512 0-1.936-.368-3.368-1.104-4.296-.736-.928-1.712-1.392-2.928-1.392zm16.378 6.048c0 1.984.344 3.44 1.032 4.368.704.928 1.624 1.392 2.76 1.392 1.6 0 3.024-.24 4.272-.72l.072.168c-1.28.496-2.728.744-4.344.744-1.6 0-2.904-.48-3.912-1.44s-1.512-2.44-1.512-4.44c0-2 .528-3.552 1.584-4.656 1.056-1.104 2.4-1.656 4.032-1.656 1.312 0 2.416.392 3.312 1.176.896.784 1.344 1.944 1.344 3.48v.24h-8.568c-.048.432-.072.88-.072 1.344zm7.008-1.536c-.016-1.536-.312-2.672-.888-3.408-.576-.736-1.32-1.104-2.232-1.104-.912 0-1.728.4-2.448 1.2-.704.8-1.152 1.904-1.344 3.312h6.912zm12.57 7.392c-.656 0-1.16-.144-1.512-.432-.336-.288-.512-.576-.528-.864l-.024-.408v-7.536c0-1.264-.328-2.072-.984-2.424-.336-.16-.752-.24-1.248-.24-1.024 0-1.944.408-2.76 1.224-.816.8-1.224 1.52-1.224 2.16V375h-1.68v-12h1.68v2.736c.272-.688.776-1.328 1.512-1.92.736-.608 1.544-.912 2.424-.912.88 0 1.592.088 2.136.264.56.16.968.392 1.224.696.4.496.6 1.136.6 1.92v7.512c0 .464.088.824.264 1.08.192.24.384.368.576.384l.264.048h.744V375h-1.464zm8.054-11.904c-1.136 0-2.088.544-2.856 1.632-.752 1.088-1.128 2.592-1.128 4.512 0 1.92.344 3.344 1.032 4.272.704.928 1.624 1.392 2.76 1.392 1.424 0 2.688-.24 3.792-.72l.072.168c-1.136.496-2.464.744-3.984.744s-2.784-.48-3.792-1.44-1.512-2.44-1.512-4.44c0-2 .528-3.552 1.584-4.656 1.056-1.104 2.4-1.656 4.032-1.656.912 0 1.752.208 2.52.624.784.416 1.36 1.048 1.728 1.896h-1.536c-.24-.784-.608-1.368-1.104-1.752a2.51 2.51 0 00-1.608-.576zm11.158 12c-1.68 0-3.048-.48-4.104-1.44s-1.584-2.44-1.584-4.44c0-2 .544-3.552 1.632-4.656 1.104-1.104 2.496-1.656 4.176-1.656 1.696 0 3.072.48 4.128 1.44s1.584 2.44 1.584 4.44c0 2-.552 3.552-1.656 4.656-1.088 1.104-2.48 1.656-4.176 1.656zm.168-12c-1.216 0-2.224.544-3.024 1.632-.8 1.072-1.2 2.576-1.2 4.512 0 1.92.368 3.344 1.104 4.272.736.928 1.712 1.392 2.928 1.392s2.224-.536 3.024-1.608c.8-1.088 1.2-2.592 1.2-4.512 0-1.936-.368-3.368-1.104-4.296-.736-.928-1.712-1.392-2.928-1.392zM194.748 375c-.656 0-1.16-.144-1.512-.432-.336-.288-.512-.576-.528-.864l-.024-.408v-7.536c0-1.264-.328-2.072-.984-2.424-.336-.16-.752-.24-1.248-.24-1.024 0-1.944.408-2.76 1.224-.816.8-1.224 1.52-1.224 2.16V375h-1.68v-12h1.68v2.736c.272-.688.776-1.328 1.512-1.92.736-.608 1.544-.912 2.424-.912.88 0 1.592.088 2.136.264.56.16.968.392 1.224.696.4.496.6 1.136.6 1.92v7.512c0 .464.088.824.264 1.08.192.24.384.368.576.384l.264.048h.744V375h-1.464zm2.553-11.808V363h.504v-2.4h1.68v2.4h3.672v.192h-3.672v8.736c0 1.04.112 1.792.336 2.256.24.464.728.696 1.464.696.752 0 1.512-.152 2.28-.456l.072.192c-.8.304-1.72.456-2.76.456-1.024 0-1.792-.208-2.304-.624-.512-.432-.768-1.28-.768-2.544v-8.712h-.504zm11.993.84v-.504c-.72.288-1.376.872-1.968 1.752-.592.864-.904 1.68-.936 2.448V375h-1.68v-12h1.68v3.816c.256-.928.744-1.8 1.464-2.616.72-.832 1.536-1.264 2.448-1.296h.096c.32 0 .584.112.792.336.224.208.336.472.336.792 0 .32-.112.584-.336.792a1.073 1.073 0 01-.792.312c-.32 0-.584-.104-.792-.312a1.073 1.073 0 01-.312-.792zM222.52 375c-1.088 0-1.832-.208-2.232-.624-.368-.352-.552-.656-.552-.912v-.504c-.784 1.424-2.04 2.136-3.768 2.136-2.016 0-3.16-.912-3.432-2.736a3.498 3.498 0 01-.048-.576c0-.208.032-.432.096-.672.064-.24.248-.504.552-.792.608-.576 1.944-.928 4.008-1.056.512-.048.984-.072 1.416-.072.432 0 .824.016 1.176.048v-3.984c-.032-.016-.032-.088 0-.216.032-.144 0-.32-.096-.528a2.779 2.779 0 00-.336-.648c-.144-.208-.4-.384-.768-.528-.368-.16-.848-.24-1.44-.24s-1.288.112-2.088.336c-.784.208-1.36.416-1.728.624l-.096-.168c1.424-.656 2.872-.984 4.344-.984 1.648 0 2.736.296 3.264.888.416.464.624.952.624 1.464v8.04c0 .464.088.824.264 1.08.192.24.384.368.576.384l.264.048h.744V375h-.744zm-6.168-.096c.848 0 1.608-.288 2.28-.864.688-.592 1.056-1.16 1.104-1.704v-2.904a17.866 17.866 0 00-1.32-.048c-.432 0-.864.024-1.296.072-1.216.144-2.008.416-2.376.816-.368.4-.552.952-.552 1.656 0 .128.008.272.024.432.144 1.696.856 2.544 2.136 2.544zm22.705-9.144c0-.976-.128-1.664-.384-2.064-.256-.4-.744-.6-1.464-.6-.96 0-1.816.4-2.568 1.2-.736.8-1.104 1.52-1.104 2.16V375h-1.68v-9.24c0-.976-.128-1.664-.384-2.064-.256-.4-.8-.6-1.632-.6-.832 0-1.624.384-2.376 1.152-.736.768-1.136 1.48-1.2 2.136V375h-1.68v-12h1.68v2.712c.256-.688.728-1.328 1.416-1.92.688-.592 1.456-.888 2.304-.888.848 0 1.52.08 2.016.24.512.144.872.376 1.08.696.208.32.336.6.384.84.048.24.072.576.072 1.008.256-.688.72-1.32 1.392-1.896.672-.592 1.392-.888 2.16-.888.768 0 1.384.064 1.848.192.464.128.808.272 1.032.432.24.16.416.392.528.696.128.304.2.552.216.744.016.192.024.464.024.816v7.512c0 .464.088.824.264 1.08.192.24.384.368.576.384l.264.048h.744V375h-1.464c-.656 0-1.16-.144-1.512-.432-.336-.288-.512-.576-.528-.864l-.024-.408v-7.536zm9.685 9.336c-1.68 0-3.048-.48-4.104-1.44s-1.584-2.44-1.584-4.44c0-2 .544-3.552 1.632-4.656 1.104-1.104 2.496-1.656 4.176-1.656 1.696 0 3.072.48 4.128 1.44s1.584 2.44 1.584 4.44c0 2-.552 3.552-1.656 4.656-1.088 1.104-2.48 1.656-4.176 1.656zm.168-12c-1.216 0-2.224.544-3.024 1.632-.8 1.072-1.2 2.576-1.2 4.512 0 1.92.368 3.344 1.104 4.272.736.928 1.712 1.392 2.928 1.392s2.224-.536 3.024-1.608c.8-1.088 1.2-2.592 1.2-4.512 0-1.936-.368-3.368-1.104-4.296-.736-.928-1.712-1.392-2.928-1.392zm14.113.744c-.256-.208-.672-.384-1.248-.528-.56-.144-.984-.216-1.272-.216h-.504c-.864.016-1.488.24-1.872.672-.384.416-.576.888-.576 1.416 0 .528.168.976.504 1.344a3.65 3.65 0 001.248.84c.512.192 1.056.416 1.632.672.592.256 1.136.52 1.632.792.512.256.936.64 1.272 1.152.336.496.504 1.12.504 1.872s-.264 1.392-.792 1.92-1.12.88-1.776 1.056a7.854 7.854 0 01-2.088.264c-1.632 0-2.856-.36-3.672-1.08l.144-.144c.32.304.792.552 1.416.744.64.192 1.256.288 1.848.288.944 0 1.72-.256 2.328-.768.624-.528.936-1.176.936-1.944 0-.784-.232-1.408-.696-1.872a4.619 4.619 0 00-1.704-1.104 73.72 73.72 0 00-1.992-.792 5.059 5.059 0 01-1.704-1.104c-.464-.48-.696-1.032-.696-1.656 0-.624.144-1.128.432-1.512.288-.4.672-.68 1.152-.84a7.701 7.701 0 012.448-.408c1.376 0 2.448.256 3.216.768l-.12.168zM279 375.096c-1.68 0-3.048-.48-4.104-1.44s-1.584-2.44-1.584-4.44c0-2 .544-3.552 1.632-4.656 1.104-1.104 2.496-1.656 4.176-1.656 1.696 0 3.072.48 4.128 1.44s1.584 2.44 1.584 4.44c0 2-.552 3.552-1.656 4.656-1.088 1.104-2.48 1.656-4.176 1.656zm.168-12c-1.216 0-2.224.544-3.024 1.632-.8 1.072-1.2 2.576-1.2 4.512 0 1.92.368 3.344 1.104 4.272.736.928 1.712 1.392 2.928 1.392s2.224-.536 3.024-1.608c.8-1.088 1.2-2.592 1.2-4.512 0-1.936-.368-3.368-1.104-4.296-.736-.928-1.712-1.392-2.928-1.392zm14.745 6.336c0-2.08.504-3.688 1.512-4.824 1.008-1.136 2.52-1.704 4.536-1.704.944 0 1.896.24 2.856.72V363h1.68v18h-1.68v-8.088c-.304.56-.808 1.056-1.512 1.488-.704.432-1.536.648-2.496.648-3.264-.08-4.896-1.952-4.896-5.616zm4.92 5.424c1.072 0 1.992-.288 2.76-.864.768-.576 1.176-1.144 1.224-1.704v-8.448c-1.136-.496-2.112-.744-2.928-.744-1.424 0-2.496.56-3.216 1.68-.72 1.104-1.08 2.656-1.08 4.656 0 3.616 1.08 5.424 3.24 5.424zm9.745-2.616c0 1.264.336 2.072 1.008 2.424.32.16.728.24 1.224.24 1.008 0 1.904-.384 2.688-1.152.8-.768 1.232-1.48 1.296-2.136V363h1.68v10.296c0 .464.088.824.264 1.08.192.24.384.368.576.384l.264.048h.744V375h-1.464c-.656 0-1.16-.144-1.512-.432-.336-.288-.512-.576-.528-.864l-.024-.408v-1.032c-.288.688-.8 1.336-1.536 1.944-.736.592-1.544.888-2.424.888-.864 0-1.576-.08-2.136-.24-.544-.176-.936-.416-1.177-.72-.415-.496-.623-1.136-.623-1.92V363h1.68v9.24zm12.584-3.096c0 1.984.344 3.44 1.032 4.368.704.928 1.624 1.392 2.76 1.392 1.6 0 3.024-.24 4.272-.72l.072.168c-1.28.496-2.728.744-4.344.744-1.6 0-2.904-.48-3.912-1.44s-1.512-2.44-1.512-4.44c0-2 .528-3.552 1.584-4.656 1.056-1.104 2.4-1.656 4.032-1.656 1.312 0 2.416.392 3.312 1.176.896.784 1.344 1.944 1.344 3.48v.24h-8.568c-.048.432-.072.88-.072 1.344zm7.008-1.536c-.016-1.536-.312-2.672-.888-3.408-.576-.736-1.32-1.104-2.232-1.104-.912 0-1.728.4-2.448 1.2-.704.8-1.152 1.904-1.344 3.312h6.912zm19.365-4.464l.144-.144c.064.032.144.128.24.288a1 1 0 01.192.432c.032.128.048.248.048.36 0 .432-.096.872-.288 1.32l-4.608 9.6h-.24l-4.464-12h1.68l3.672 9.936 3.72-7.536c.192-.336.288-.736.288-1.2 0-.464-.128-.816-.384-1.056zm7.636 11.952c-1.68 0-3.048-.48-4.104-1.44s-1.584-2.44-1.584-4.44c0-2 .544-3.552 1.632-4.656 1.104-1.104 2.496-1.656 4.176-1.656 1.696 0 3.072.48 4.128 1.44s1.584 2.44 1.584 4.44c0 2-.552 3.552-1.656 4.656-1.088 1.104-2.48 1.656-4.176 1.656zm.168-12c-1.216 0-2.224.544-3.024 1.632-.8 1.072-1.2 2.576-1.2 4.512 0 1.92.368 3.344 1.104 4.272.736.928 1.712 1.392 2.928 1.392s2.224-.536 3.024-1.608c.8-1.088 1.2-2.592 1.2-4.512 0-1.936-.368-3.368-1.104-4.296-.736-.928-1.712-1.392-2.928-1.392zm13.19 0c-1.136 0-2.088.544-2.856 1.632-.752 1.088-1.128 2.592-1.128 4.512 0 1.92.344 3.344 1.032 4.272.704.928 1.624 1.392 2.76 1.392 1.424 0 2.688-.24 3.792-.72l.072.168c-1.136.496-2.464.744-3.984.744s-2.784-.48-3.792-1.44-1.512-2.44-1.512-4.44c0-2 .528-3.552 1.584-4.656 1.056-1.104 2.4-1.656 4.032-1.656.912 0 1.752.208 2.52.624.784.416 1.36 1.048 1.728 1.896h-1.536c-.24-.784-.608-1.368-1.104-1.752a2.51 2.51 0 00-1.608-.576zm7.336 6.048c0 1.984.344 3.44 1.032 4.368.704.928 1.624 1.392 2.76 1.392 1.6 0 3.024-.24 4.272-.72l.072.168c-1.28.496-2.728.744-4.344.744-1.6 0-2.904-.48-3.912-1.44s-1.512-2.44-1.512-4.44c0-2 .528-3.552 1.584-4.656 1.056-1.104 2.4-1.656 4.032-1.656 1.312 0 2.416.392 3.312 1.176.896.784 1.344 1.944 1.344 3.48v.24h-8.568c-.048.432-.072.88-.072 1.344zm7.008-1.536c-.016-1.536-.312-2.672-.888-3.408-.576-.736-1.32-1.104-2.232-1.104-.912 0-1.728.4-2.448 1.2-.704.8-1.152 1.904-1.344 3.312h6.912zm.024-7.368l-.504.48-2.904-3.12-2.784 3-.168-.12 3.288-3.48 3.072 3.24zm12.117 8.904c0 1.984.344 3.44 1.032 4.368.704.928 1.624 1.392 2.76 1.392 1.6 0 3.024-.24 4.272-.72l.072.168c-1.28.496-2.728.744-4.344.744-1.6 0-2.904-.48-3.912-1.44s-1.512-2.44-1.512-4.44c0-2 .528-3.552 1.584-4.656 1.056-1.104 2.4-1.656 4.032-1.656 1.312 0 2.416.392 3.312 1.176.896.784 1.344 1.944 1.344 3.48v.24h-8.568c-.048.432-.072.88-.072 1.344zm7.008-1.536c-.016-1.536-.312-2.672-.888-3.408-.576-.736-1.32-1.104-2.232-1.104-.912 0-1.728.4-2.448 1.2-.704.8-1.152 1.904-1.344 3.312h6.912zm10.344-3.768c-.256-.208-.672-.384-1.248-.528-.56-.144-.984-.216-1.272-.216h-.504c-.864.016-1.488.24-1.872.672-.384.416-.576.888-.576 1.416 0 .528.168.976.504 1.344a3.65 3.65 0 001.248.84c.512.192 1.056.416 1.632.672.592.256 1.136.52 1.632.792.512.256.936.64 1.272 1.152.336.496.504 1.12.504 1.872s-.264 1.392-.792 1.92-1.12.88-1.776 1.056a7.854 7.854 0 01-2.088.264c-1.632 0-2.856-.36-3.672-1.08l.144-.144c.32.304.792.552 1.416.744.64.192 1.256.288 1.848.288.944 0 1.72-.256 2.328-.768.624-.528.936-1.176.936-1.944 0-.784-.232-1.408-.696-1.872a4.619 4.619 0 00-1.704-1.104 73.72 73.72 0 00-1.992-.792 5.059 5.059 0 01-1.704-1.104c-.464-.48-.696-1.032-.696-1.656 0-.624.144-1.128.432-1.512.288-.4.672-.68 1.152-.84a7.701 7.701 0 012.448-.408c1.376 0 2.448.256 3.216.768l-.12.168zm2.997-.648V363h.504v-2.4h1.68v2.4h3.672v.192h-3.672v8.736c0 1.04.112 1.792.336 2.256.24.464.728.696 1.464.696.752 0 1.512-.152 2.28-.456l.072.192c-.8.304-1.72.456-2.76.456-1.024 0-1.792-.208-2.304-.624-.512-.432-.768-1.28-.768-2.544v-8.712h-.504zM432.942 375c-1.088 0-1.832-.208-2.232-.624-.368-.352-.552-.656-.552-.912v-.504c-.784 1.424-2.04 2.136-3.768 2.136-2.016 0-3.16-.912-3.432-2.736a3.498 3.498 0 01-.048-.576c0-.208.032-.432.096-.672.064-.24.248-.504.552-.792.608-.576 1.944-.928 4.008-1.056.512-.048.984-.072 1.416-.072.432 0 .824.016 1.176.048v-3.984c-.032-.016-.032-.088 0-.216.032-.144 0-.32-.096-.528a2.779 2.779 0 00-.336-.648c-.144-.208-.4-.384-.768-.528-.368-.16-.848-.24-1.44-.24s-1.288.112-2.088.336c-.784.208-1.36.416-1.728.624l-.096-.168c1.424-.656 2.872-.984 4.344-.984 1.648 0 2.736.296 3.264.888.416.464.624.952.624 1.464v8.04c0 .464.088.824.264 1.08.192.24.384.368.576.384l.264.048h.744V375h-.744zm-6.168-.096c.848 0 1.608-.288 2.28-.864.688-.592 1.056-1.16 1.104-1.704v-2.904a17.866 17.866 0 00-1.32-.048c-.432 0-.864.024-1.296.072-1.216.144-2.008.416-2.376.816-.368.4-.552.952-.552 1.656 0 .128.008.272.024.432.144 1.696.856 2.544 2.136 2.544zm16.362-11.76l.144-.144c.064.032.144.128.24.288a1 1 0 01.192.432c.032.128.048.248.048.36 0 .432-.096.872-.288 1.32l-4.608 9.6h-.24l-4.464-12h1.68l3.672 9.936 3.72-7.536c.192-.336.288-.736.288-1.2 0-.464-.128-.816-.384-1.056zM454.997 375c-1.088 0-1.832-.208-2.232-.624-.368-.352-.552-.656-.552-.912v-.504c-.784 1.424-2.04 2.136-3.768 2.136-2.016 0-3.16-.912-3.432-2.736a3.498 3.498 0 01-.048-.576c0-.208.032-.432.096-.672.064-.24.248-.504.552-.792.608-.576 1.944-.928 4.008-1.056.512-.048.984-.072 1.416-.072.432 0 .824.016 1.176.048v-3.984c-.032-.016-.032-.088 0-.216.032-.144 0-.32-.096-.528a2.779 2.779 0 00-.336-.648c-.144-.208-.4-.384-.768-.528-.368-.16-.848-.24-1.44-.24s-1.288.112-2.088.336c-.784.208-1.36.416-1.728.624l-.096-.168c1.424-.656 2.872-.984 4.344-.984 1.648 0 2.736.296 3.264.888.416.464.624.952.624 1.464v8.04c0 .464.088.824.264 1.08.192.24.384.368.576.384l.264.048h.744V375h-.744zm-6.168-.096c.848 0 1.608-.288 2.28-.864.688-.592 1.056-1.16 1.104-1.704v-2.904a17.866 17.866 0 00-1.32-.048c-.432 0-.864.024-1.296.072-1.216.144-2.008.416-2.376.816-.368.4-.552.952-.552 1.656 0 .128.008.272.024.432.144 1.696.856 2.544 2.136 2.544zM464.942 363h1.68v2.976c.272-.736.776-1.432 1.512-2.088.736-.656 1.568-.984 2.496-.984 3.248 0 4.872 1.904 4.872 5.712 0 4.32-2.096 6.48-6.288 6.48-.752 0-1.616-.176-2.592-.528V381h-1.68v-18zm5.664.096c-.992 0-1.888.432-2.688 1.296-.8.848-1.232 1.616-1.296 2.304v7.656c.976.368 1.832.552 2.568.552 3.088 0 4.632-2.104 4.632-6.312 0-3.664-1.072-5.496-3.216-5.496zm11.407.936v-.504c-.72.288-1.376.872-1.968 1.752-.592.864-.904 1.68-.936 2.448V375h-1.68v-12h1.68v3.816c.256-.928.744-1.8 1.464-2.616.72-.832 1.536-1.264 2.448-1.296h.096c.32 0 .584.112.792.336.224.208.336.472.336.792 0 .32-.112.584-.336.792a1.073 1.073 0 01-.792.312c-.32 0-.584-.104-.792-.312a1.073 1.073 0 01-.312-.792zm8.768 11.064c-1.68 0-3.048-.48-4.104-1.44s-1.584-2.44-1.584-4.44c0-2 .544-3.552 1.632-4.656 1.104-1.104 2.496-1.656 4.176-1.656 1.696 0 3.072.48 4.128 1.44s1.584 2.44 1.584 4.44c0 2-.552 3.552-1.656 4.656-1.088 1.104-2.48 1.656-4.176 1.656zm.168-12c-1.216 0-2.224.544-3.024 1.632-.8 1.072-1.2 2.576-1.2 4.512 0 1.92.368 3.344 1.104 4.272.736.928 1.712 1.392 2.928 1.392s2.224-.536 3.024-1.608c.8-1.088 1.2-2.592 1.2-4.512 0-1.936-.368-3.368-1.104-4.296-.736-.928-1.712-1.392-2.928-1.392zm13.19 0c-1.136 0-2.088.544-2.856 1.632-.752 1.088-1.128 2.592-1.128 4.512 0 1.92.344 3.344 1.032 4.272.704.928 1.624 1.392 2.76 1.392 1.424 0 2.688-.24 3.792-.72l.072.168c-1.136.496-2.464.744-3.984.744s-2.784-.48-3.792-1.44-1.512-2.44-1.512-4.44c0-2 .528-3.552 1.584-4.656 1.056-1.104 2.4-1.656 4.032-1.656.912 0 1.752.208 2.52.624.784.416 1.36 1.048 1.728 1.896h-1.536c-.24-.784-.608-1.368-1.104-1.752a2.51 2.51 0 00-1.608-.576zm7.618 9.144c0 1.264.336 2.072 1.008 2.424.32.16.728.24 1.224.24 1.008 0 1.904-.384 2.688-1.152.8-.768 1.232-1.48 1.296-2.136V363h1.68v10.296c0 .464.088.824.264 1.08.192.24.384.368.576.384l.264.048h.744V375h-1.464c-.656 0-1.16-.144-1.512-.432-.336-.288-.512-.576-.528-.864l-.024-.408v-1.032c-.288.688-.8 1.336-1.536 1.944-.736.592-1.544.888-2.424.888-.864 0-1.576-.08-2.136-.24-.544-.176-.936-.416-1.176-.72-.416-.496-.624-1.136-.624-1.92V363h1.68v9.24zm15.537-8.208v-.504c-.72.288-1.376.872-1.968 1.752-.592.864-.904 1.68-.936 2.448V375h-1.68v-12h1.68v3.816c.256-.928.744-1.8 1.464-2.616.72-.832 1.536-1.264 2.448-1.296h.096c.32 0 .584.112.792.336.224.208.336.472.336.792 0 .32-.112.584-.336.792a1.073 1.073 0 01-.792.312c-.32 0-.584-.104-.792-.312a1.073 1.073 0 01-.312-.792zM540.52 375c-1.088 0-1.832-.208-2.232-.624-.368-.352-.552-.656-.552-.912v-.504c-.784 1.424-2.04 2.136-3.768 2.136-2.016 0-3.16-.912-3.432-2.736a3.498 3.498 0 01-.048-.576c0-.208.032-.432.096-.672.064-.24.248-.504.552-.792.608-.576 1.944-.928 4.008-1.056.512-.048.984-.072 1.416-.072.432 0 .824.016 1.176.048v-3.984c-.032-.016-.032-.088 0-.216.032-.144 0-.32-.096-.528a2.779 2.779 0 00-.336-.648c-.144-.208-.4-.384-.768-.528-.368-.16-.848-.24-1.44-.24s-1.288.112-2.088.336c-.784.208-1.36.416-1.728.624l-.096-.168c1.424-.656 2.872-.984 4.344-.984 1.648 0 2.736.296 3.264.888.416.464.624.952.624 1.464v8.04c0 .464.088.824.264 1.08.192.24.384.368.576.384l.264.048h.744V375h-.744zm-6.168-.096c.848 0 1.608-.288 2.28-.864.688-.592 1.056-1.16 1.104-1.704v-2.904a17.866 17.866 0 00-1.32-.048c-.432 0-.864.024-1.296.072-1.216.144-2.008.416-2.376.816-.368.4-.552.952-.552 1.656 0 .128.008.272.024.432.144 1.696.856 2.544 2.136 2.544zm18.193.096c-.656 0-1.16-.144-1.512-.432-.336-.288-.512-.576-.528-.864l-.024-.408v-7.536c0-1.264-.328-2.072-.984-2.424-.336-.16-.752-.24-1.248-.24-1.024 0-1.944.408-2.76 1.224-.816.8-1.224 1.52-1.224 2.16V375h-1.68v-12h1.68v2.736c.272-.688.776-1.328 1.512-1.92.736-.608 1.544-.912 2.424-.912.88 0 1.592.088 2.136.264.56.16.968.392 1.224.696.4.496.6 1.136.6 1.92v7.512c0 .464.088.824.264 1.08.192.24.384.368.576.384l.264.048h.744V375h-1.464zm2.438-5.568c0-2.08.504-3.688 1.512-4.824 1.008-1.136 2.52-1.704 4.536-1.704.944 0 1.896.24 2.856.72v-6.6h1.68v16.272c0 .464.088.824.264 1.08.192.24.384.368.576.384l.264.048h.744V375h-1.464c-.656 0-1.16-.144-1.512-.432-.336-.288-.512-.576-.528-.864l-.024-.408v-.384c-.304.56-.808 1.056-1.512 1.488-.704.432-1.536.648-2.496.648-3.264-.08-4.896-1.952-4.896-5.616zm4.92 5.424c1.072 0 1.992-.288 2.76-.864.768-.576 1.176-1.144 1.224-1.704v-8.448c-1.136-.496-2.112-.744-2.928-.744-1.424 0-2.496.56-3.216 1.68-.72 1.104-1.08 2.656-1.08 4.656 0 3.616 1.08 5.424 3.24 5.424zm13.917.24c-1.68 0-3.048-.48-4.104-1.44s-1.584-2.44-1.584-4.44c0-2 .544-3.552 1.632-4.656 1.104-1.104 2.496-1.656 4.176-1.656 1.696 0 3.072.48 4.128 1.44s1.584 2.44 1.584 4.44c0 2-.552 3.552-1.656 4.656-1.088 1.104-2.48 1.656-4.176 1.656zm.168-12c-1.216 0-2.224.544-3.024 1.632-.8 1.072-1.2 2.576-1.2 4.512 0 1.92.368 3.344 1.104 4.272.736.928 1.712 1.392 2.928 1.392s2.224-.536 3.024-1.608c.8-1.088 1.2-2.592 1.2-4.512 0-1.936-.368-3.368-1.104-4.296-.736-.928-1.712-1.392-2.928-1.392z" fill="#fff"/><defs><radialGradient id="paint0_radial_0_1" cx="0" cy="0" r="1" gradientUnits="userSpaceOnUse" gradientTransform="rotate(90 41.5 294) scale(55.5)"><stop/><stop offset="1"/></radialGradient></defs></svg>